<svg xmlns="http://www.w3.org/2000/svg" width="312.14" height="312.139" viewBox="0 0 312.14 312.139">
  <g id="button_Crosshairs" opacity="0.598">
    <path id="XMLID_89_" d="M374.684,347.4a27.284,27.284,0,1,0,27.284,27.284A27.284,27.284,0,0,0,374.684,347.4Zm0,54.124a26.84,26.84,0,1,1,26.84-26.84A26.833,26.833,0,0,1,374.684,401.524Z" transform="translate(-218.615 -218.615)" fill="#fff"/>
    <path id="XMLID_88_" d="M402,413.18l10.491-2.78-2.817,10.454-1.928-5.709Z" transform="translate(-252.974 -258.26)" fill="#fff"/>
    <g id="XMLID_71_" transform="translate(81.334 81.371)">
      <path id="XMLID_87_" d="M451.3,234.314a64.688,64.688,0,0,1,8.489,2.15l4.078-11.2a71.3,71.3,0,0,0-10.491-2.669Z" transform="translate(-365.332 -221.451)" fill="#fff"/>
      <path id="XMLID_86_" d="M391.676,232.1a61.382,61.382,0,0,1,8.712-.7V219.5a73.868,73.868,0,0,0-10.788.89Z" transform="translate(-326.505 -219.5)" fill="#fff"/>
      <path id="XMLID_85_" d="M423.3,231.4a61.386,61.386,0,0,1,8.712.7l2.076-11.715a73.866,73.866,0,0,0-10.788-.89Z" transform="translate(-347.712 -219.5)" fill="#fff"/>
      <path id="XMLID_84_" d="M360.878,236.465a64.661,64.661,0,0,1,8.489-2.15L367.291,222.6a76.279,76.279,0,0,0-10.491,2.669Z" transform="translate(-305.864 -221.451)" fill="#fff"/>
      <path id="XMLID_83_" d="M231.3,417.287c0-.741,0-1.446.037-2.187h-11.9c-.037.7-.037,1.446-.037,2.187a75.121,75.121,0,0,0,.556,9.194l11.715-2.076C231.448,422.069,231.3,419.7,231.3,417.287Z" transform="translate(-219.4 -342.589)" fill="#fff"/>
      <path id="XMLID_82_" d="M589.808,417.287a64.414,64.414,0,0,1-.408,7.118l11.714,2.076a75.12,75.12,0,0,0,.556-9.194c0-.741,0-1.446-.037-2.187h-11.9C589.771,415.841,589.808,416.546,589.808,417.287Z" transform="translate(-452.236 -342.589)" fill="#fff"/>
      <path id="XMLID_81_" d="M589.5,347l-11.2,4.078a68.119,68.119,0,0,1,2.78,8.712l11.715-2.076A70.306,70.306,0,0,0,589.5,347Z" transform="translate(-445.251 -299.734)" fill="#fff"/>
      <path id="XMLID_80_" d="M231.7,391.6a61.349,61.349,0,0,1,1.223-9.12L221.209,380.4a73.927,73.927,0,0,0-1.409,11.2Z" transform="translate(-219.652 -320.752)" fill="#fff"/>
      <path id="XMLID_79_" d="M463.416,580.1A62.079,62.079,0,0,1,454,582.732l2.076,11.714a73.161,73.161,0,0,0,11.418-3.188Z" transform="translate(-367.031 -446.421)" fill="#fff"/>
      <path id="XMLID_78_" d="M433.05,588.1a60.327,60.327,0,0,1-9.75.89v11.9a72.6,72.6,0,0,0,11.789-1.075Z" transform="translate(-347.712 -451.455)" fill="#fff"/>
      <path id="XMLID_77_" d="M586.8,382.376a61.353,61.353,0,0,1,1.223,9.12h11.9a73.937,73.937,0,0,0-1.409-11.2Z" transform="translate(-450.6 -320.69)" fill="#fff"/>
      <path id="XMLID_76_" d="M585.4,444.8a63.4,63.4,0,0,1-2,9.194l11.2,4.078a74.347,74.347,0,0,0,2.521-11.2Z" transform="translate(-448.461 -361.279)" fill="#fff"/>
      <path id="XMLID_75_" d="M235.316,453.894a62.33,62.33,0,0,1-2-9.194L221.6,446.776a75.378,75.378,0,0,0,2.521,11.2Z" transform="translate(-220.784 -361.216)" fill="#fff"/>
      <path id="XMLID_74_" d="M398.626,588.89a60.73,60.73,0,0,1-9.75-.89L386.8,599.714a77.424,77.424,0,0,0,11.789,1.075v-11.9Z" transform="translate(-324.743 -451.393)" fill="#fff"/>
      <path id="XMLID_73_" d="M236.314,359.79a58.143,58.143,0,0,1,2.78-8.712L227.9,347a69.024,69.024,0,0,0-3.3,10.714Z" transform="translate(-222.672 -299.734)" fill="#fff"/>
      <path id="XMLID_72_" d="M364.994,582.732a62.1,62.1,0,0,1-9.416-2.632L351.5,591.258a77.5,77.5,0,0,0,11.418,3.188Z" transform="translate(-302.529 -446.421)" fill="#fff"/>
    </g>
    <path id="XMLID_68_" d="M345.359,300.8a44.56,44.56,0,1,0,44.56,44.56A44.552,44.552,0,0,0,345.359,300.8Zm0,86.6A42.039,42.039,0,1,1,387.4,345.36,42.053,42.053,0,0,1,345.359,387.4Z" transform="translate(-189.29 -189.29)" fill="#fff"/>
    <path id="XMLID_67_" d="M416.1,471.914l1.816-3.114,1.817,3.114Z" transform="translate(-261.847 -295.01)" fill="#fff"/>
    <path id="XMLID_66_" d="M455.727,458.248,454.8,454.8l3.448.927Z" transform="translate(-286.2 -286.2)" fill="#fff"/>
    <path id="XMLID_65_" d="M471.914,419.733l-3.114-1.817,3.114-1.816Z" transform="translate(-295.01 -261.847)" fill="#fff"/>
    <path id="XMLID_64_" d="M458.248,380.421l-3.448.927.927-3.448Z" transform="translate(-286.2 -237.808)" fill="#fff"/>
    <path id="XMLID_63_" d="M419.733,364.8l-1.817,3.114L416.1,364.8Z" transform="translate(-261.847 -229.564)" fill="#fff"/>
    <path id="XMLID_62_" d="M380.421,377.9l.927,3.448-3.448-.927Z" transform="translate(-237.808 -237.808)" fill="#fff"/>
    <path id="XMLID_61_" d="M364.8,416.1l3.114,1.816-3.114,1.817Z" transform="translate(-229.564 -261.847)" fill="#fff"/>
    <path id="XMLID_60_" d="M377.9,455.727l3.448-.927-.927,3.448Z" transform="translate(-237.808 -286.2)" fill="#fff"/>
    <g id="XMLID_47_" transform="translate(155.44)">
      <path id="XMLID_48_" d="M420.56,91.529H419.3V88.155h1.26Zm0-8.823H419.3V79.332h1.26Zm0-8.786H419.3V70.546h1.26Zm0-8.823H419.3V61.724h1.26Zm0-8.823H419.3V52.9h1.26Zm0-8.823H419.3V44.078h1.26Zm0-8.823H419.3V35.255h1.26Zm0-8.823H419.3V26.432h1.26Zm0-8.823H419.3V17.609h1.26Zm0-8.823H419.3V8.786h1.26Zm0-8.786H419.3V0h1.26Z" transform="translate(-419.3)" fill="#fff"/>
    </g>
    <g id="XMLID_34_" transform="translate(0 155.44)">
      <path id="XMLID_35_" d="M91.529,419.3v1.26H88.155V419.3Zm-8.823,0v1.26H79.332V419.3Zm-8.786,0v1.26H70.547V419.3Zm-8.823,0v1.26H61.724V419.3Zm-8.823,0v1.26H52.9V419.3Zm-8.823,0v1.26H44.078V419.3Zm-8.823,0v1.26H35.255V419.3Zm-8.823,0v1.26H26.432V419.3Zm-8.823,0v1.26H17.609V419.3Zm-8.823,0v1.26H8.786V419.3Zm-8.786,0v1.26H0V419.3Z" transform="translate(0 -419.3)" fill="#fff"/>
    </g>
    <g id="XMLID_21_" transform="translate(155.44 220.611)">
      <path id="XMLID_22_" d="M419.3,595.1h1.26v3.373H419.3Zm0,8.823h1.26V607.3H419.3Zm0,8.786h1.26v3.373H419.3Zm0,8.823h1.26v3.374H419.3Zm0,8.823h1.26v3.373H419.3Zm0,8.823h1.26v3.373H419.3Zm0,8.823h1.26v3.374H419.3Zm0,8.823h1.26V660.2H419.3Zm0,8.823h1.26v3.374H419.3Zm0,8.823h1.26v3.373H419.3Zm0,8.786h1.26v3.373H419.3Z" transform="translate(-419.3 -595.1)" fill="#fff"/>
    </g>
    <g id="XMLID_8_" transform="translate(220.611 155.44)">
      <path id="XMLID_9_" d="M595.1,420.56V419.3h3.373v1.26Zm8.823,0V419.3H607.3v1.26Zm8.786,0V419.3h3.373v1.26Zm8.823,0V419.3h3.373v1.26Zm8.823,0V419.3h3.374v1.26Zm8.823,0V419.3h3.373v1.26Zm8.823,0V419.3h3.374v1.26Zm8.823,0V419.3H660.2v1.26Zm8.823,0V419.3h3.373v1.26Zm8.823,0V419.3h3.374v1.26Zm8.786,0V419.3h3.374v1.26Z" transform="translate(-595.1 -419.3)" fill="#fff"/>
    </g>
    <path id="XMLID_5_" d="M214.09,92.2A121.89,121.89,0,1,0,335.98,214.09,121.886,121.886,0,0,0,214.09,92.2Zm85.19,206.264-5.6-5.6-.816.816,5.6,5.6c-2.187,2.187-4.486,4.263-6.858,6.3l-5.079-6.08-.89.741,5.116,6.08c-2.373,1.965-4.856,3.893-7.377,5.672l-4.56-6.487-.964.667,4.56,6.487c-2.558,1.779-5.153,3.448-7.859,5l-3.967-6.9-1,.593,3.967,6.9c-2.669,1.52-5.449,2.966-8.267,4.3l-3.373-7.192-1.038.482,3.373,7.192c-2.817,1.3-5.672,2.484-8.6,3.559l-2.706-7.488-1.075.408,2.706,7.488c-2.892,1.038-5.857,1.965-8.86,2.78l-2.076-7.674-1.112.3,2.076,7.674c-3,.779-6.006,1.446-9.082,2l-1.372-7.822-1.149.185,1.372,7.822c-3.04.519-6.117.927-9.231,1.186l-.7-7.9-1.149.111.7,7.9c-3.077.26-6.154.371-9.3.408v-7.933h-1.149v7.933c-3.114,0-6.228-.148-9.3-.408l.7-7.9-1.149-.111-.7,7.9c-3.114-.3-6.191-.667-9.231-1.186l1.372-7.822-1.149-.185-1.372,7.822c-3.077-.556-6.117-1.223-9.082-2l2.076-7.674-1.112-.3-2.076,7.674c-3-.816-5.968-1.742-8.86-2.78l2.706-7.488-1.075-.408L172.57,326.6c-2.929-1.075-5.783-2.261-8.6-3.559l3.374-7.192-1.038-.482-3.374,7.192c-2.817-1.335-5.561-2.78-8.267-4.3l3.967-6.9-1-.593-3.967,6.9c-2.669-1.557-5.3-3.225-7.859-5l4.56-6.487-.964-.667L144.841,312c-2.521-1.779-5-3.707-7.377-5.672l5.116-6.08-.89-.741-5.079,6.08c-2.373-2-4.671-4.115-6.858-6.3l5.6-5.6-.816-.816-5.6,5.6c-2.187-2.187-4.263-4.486-6.3-6.858l6.08-5.079-.741-.89-6.08,5.116c-1.965-2.373-3.892-4.856-5.672-7.377l6.487-4.56-.667-.964-6.487,4.56c-1.779-2.558-3.448-5.153-5-7.859l6.9-3.967-.593-1-6.932,3.967c-1.52-2.669-2.966-5.449-4.3-8.267l7.192-3.373-.482-1.038-7.192,3.374c-1.3-2.817-2.484-5.672-3.559-8.6l7.488-2.706-.408-1.075-7.488,2.706c-1.038-2.892-1.965-5.857-2.78-8.86l7.674-2.076-.3-1.112L98.094,244.6c-.779-3-1.446-6.006-2-9.082l7.822-1.372L103.729,233l-7.822,1.372c-.519-3.04-.927-6.117-1.186-9.231l7.9-.7-.111-1.149-7.9.7c-.26-3.077-.371-6.154-.408-9.3h7.933v-1.149h-7.97c0-3.114.148-6.228.408-9.3l7.9.7.111-1.149-7.9-.7c.3-3.114.667-6.191,1.186-9.231l7.822,1.372.185-1.149L96.055,192.7c.556-3.077,1.223-6.117,2-9.082l7.674,2.076.3-1.112-7.674-2.076c.816-3,1.742-5.968,2.78-8.86l7.488,2.706.408-1.075-7.488-2.706c1.075-2.929,2.261-5.783,3.559-8.6l7.192,3.373.482-1.038-7.192-3.374c1.335-2.817,2.78-5.561,4.3-8.267l6.9,3.967.593-1-6.9-3.967c1.557-2.669,3.225-5.3,5-7.859l6.487,4.56.667-.964-6.487-4.56c1.779-2.521,3.707-5,5.672-7.377l6.08,5.116.741-.89-6.08-5.079c2-2.373,4.115-4.671,6.3-6.858l5.6,5.6.816-.816-5.6-5.6c2.187-2.187,4.486-4.263,6.858-6.3l5.079,6.08.89-.741-5.116-6.08c2.373-1.965,4.856-3.892,7.377-5.672l4.56,6.487.964-.667-4.56-6.487c2.558-1.779,5.153-3.448,7.859-5l3.967,6.9,1-.593-3.93-6.932c2.669-1.52,5.449-2.966,8.267-4.3l3.373,7.192,1.038-.482-3.373-7.192c2.817-1.3,5.672-2.484,8.6-3.559l2.706,7.488,1.075-.408-2.706-7.488c2.892-1.038,5.857-1.965,8.86-2.78l2.076,7.674,1.112-.3-2.076-7.674c3-.779,6.006-1.446,9.082-2l1.372,7.822,1.149-.185-1.372-7.822c3.04-.519,6.117-.927,9.231-1.186l.7,7.9,1.149-.111-.7-7.9c3.077-.259,6.154-.371,9.3-.408v7.933h1.149v-7.97c3.114,0,6.228.148,9.3.408l-.7,7.9,1.149.111.7-7.9c3.114.3,6.191.667,9.231,1.186l-1.372,7.822,1.149.185,1.372-7.822c3.077.556,6.117,1.223,9.082,2l-2.076,7.674,1.112.3,2.076-7.674c3,.816,5.968,1.742,8.86,2.78l-2.706,7.488,1.075.408,2.706-7.488c2.929,1.075,5.783,2.261,8.6,3.559l-3.374,7.192,1.038.482,3.373-7.192c2.817,1.335,5.561,2.78,8.267,4.3l-3.967,6.9,1,.593,3.967-6.9c2.669,1.557,5.3,3.225,7.859,5l-4.523,6.525.964.667,4.56-6.487c2.521,1.779,5,3.707,7.377,5.672l-5.116,6.08.89.741,5.079-6.08c2.373,2,4.671,4.115,6.858,6.3l-5.6,5.6.816.816,5.6-5.6c2.187,2.187,4.263,4.486,6.3,6.858l-6.08,5.079.741.89,6.08-5.116c1.965,2.373,3.893,4.856,5.672,7.377l-6.487,4.56.667.964,6.487-4.56c1.779,2.558,3.448,5.153,5,7.859l-6.9,3.967.593,1,6.9-3.967c1.52,2.669,2.966,5.449,4.3,8.267l-7.192,3.373.482,1.038,7.192-3.373c1.3,2.817,2.484,5.672,3.559,8.6l-7.488,2.706.408,1.075,7.488-2.706c1.038,2.892,1.965,5.857,2.78,8.86l-7.674,2.076.3,1.112,7.674-2.076c.778,3,1.446,6.006,2,9.082l-7.822,1.372.185,1.149,7.822-1.372c.519,3.04.927,6.117,1.186,9.231l-7.9.7.111,1.149,7.9-.7c.259,3.077.371,6.154.408,9.3h-7.933v1.149h7.933c0,3.114-.148,6.228-.408,9.3l-7.9-.7-.111,1.149,7.9.7c-.3,3.114-.667,6.191-1.186,9.231l-7.822-1.372-.185,1.149,7.822,1.372c-.556,3.077-1.223,6.117-2,9.082l-7.674-2.076-.3,1.112,7.674,2.076c-.816,3-1.742,5.968-2.78,8.86l-7.488-2.706-.408,1.075,7.488,2.706c-1.075,2.929-2.261,5.783-3.559,8.6l-7.192-3.373-.482,1.038,7.192,3.373c-1.335,2.817-2.78,5.561-4.3,8.267l-6.9-3.967-.593,1,6.9,3.967c-1.557,2.669-3.225,5.3-5,7.859l-6.487-4.523-.667.964,6.487,4.56c-1.779,2.521-3.707,5-5.672,7.377l-6.08-5.116-.741.89,6.08,5.079C303.58,293.979,301.467,296.277,299.28,298.464Z" transform="translate(-58.02 -58.02)" fill="#fff"/>
    <rect id="XMLID_4_" width="0.593" height="20.018" transform="translate(155.773 116.033)" fill="#fff"/>
    <rect id="XMLID_3_" width="20.018" height="0.593" transform="translate(116.033 155.773)" fill="#fff"/>
    <rect id="XMLID_2_" width="0.593" height="20.018" transform="translate(155.773 176.088)" fill="#fff"/>
    <rect id="XMLID_1_" width="20.018" height="0.593" transform="translate(176.088 155.773)" fill="#fff"/>
  </g>
</svg>
