<svg xmlns="http://www.w3.org/2000/svg" id="Group_63" width="575.907" height="569.195" data-name="Group 63" viewBox="0 0 575.907 569.195">
    <defs>
        <style>
            .cls-1{fill:#e88c45}.cls-2{fill:#de5e5d}.cls-3{fill:#863a54}.cls-4{fill:#6a3250}.cls-5{fill:#4d294b}.cls-6{fill:#e37551}.cls-7{fill:#a34259}.cls-8{fill:#bf4b5e}.cls-9{fill:#dc5363}.cls-10{fill:#ea973f}.cls-11{fill:#e5804b}
        </style>
    </defs>
    <path id="Path_197" d="M467.784 10.712L409.189 0 282.55 24.187z" class="cls-1" data-name="Path 197" transform="translate(-123.173)"/>
    <path id="Path_198" d="M753.17 144.213L705.529 54.65 610.94 18.99z" class="cls-1" data-name="Path 198" transform="translate(-266.329 -8.278)"/>
    <path id="Path_199" d="M826.271 171.773l30.8-11.383-78.441-78.18z" class="cls-1" data-name="Path 199" transform="translate(-339.43 -35.838)"/>
    <path id="Path_200" d="M721.276 522.9L597.4 705.683 507.06 508.17z" class="cls-2" data-name="Path 200" transform="translate(-221.044 -221.528)"/>
    <path id="Path_201" d="M355.883 508.17L265.406 678.9 160.27 517.511z" class="cls-2" data-name="Path 201" transform="translate(-69.867 -221.528)"/>
    <path id="Path_202" d="M148.888 524.73l105.136 161.385-119.864 6.7z" class="cls-3" data-name="Path 202" transform="translate(-58.485 -228.747)"/>
    <path id="Path_203" d="M134.16 817.536l119.864-6.7 42.847 105.131z" class="cls-4" data-name="Path 203" transform="translate(-58.485 -353.472)"/>
    <path id="Path_204" d="M207.133 893.021L134.16 822.71l162.711 98.436z" class="cls-4" data-name="Path 204" transform="translate(-58.485 -358.646)"/>
    <path id="Path_205" d="M41.5 650.618L0 524.73l75.675 168.081z" class="cls-3" data-name="Path 205" transform="translate(0 -228.747)"/>
    <path id="Path_206" d="M470.25 993.048l-47.63-6.7 172.1-14.062z" class="cls-5" data-name="Path 206" transform="translate(-184.234 -423.853)"/>
    <path id="Path_207" d="M346.66 810.84l180.812 26.788-137.965 78.343z" class="cls-3" data-name="Path 207" transform="translate(-151.12 -353.472)"/>
    <path id="Path_208" d="M560.585 858.33l34.137 64.281-172.1 14.062z" class="cls-4" data-name="Path 208" transform="translate(-184.234 -374.174)"/>
    <path id="Path_209" d="M808.5 789.47L701.348 892.593l-34.138-64.281z" class="cls-3" data-name="Path 209" transform="translate(-290.859 -344.156)"/>
    <g id="Group_56" data-name="Group 56" transform="translate(51.121 10.712)">
        <path id="Path_210" d="M270.765 192.69L160.27 379.983l195.613-9.341z" class="cls-6" data-name="Path 210" transform="translate(-120.988 -94.712)"/>
        <path id="Path_211" d="M324.071 116.968L467.784 18.99 282.55 32.466z" class="cls-6" data-name="Path 211" transform="translate(-174.294 -18.99)"/>
        <path id="Path_212" d="M90.63 168.69L198.886 42.88l41.521 84.5z" class="cls-6" data-name="Path 212" transform="translate(-90.63 -29.404)"/>
    </g>
    <path id="Path_213" d="M0 524.73h90.4L75.675 692.811z" class="cls-7" data-name="Path 213" transform="translate(0 -228.747)"/>
    <path id="Path_214" d="M0 411.906L51.121 265.92 90.4 411.906z" class="cls-8" data-name="Path 214" transform="translate(0 -115.923)"/>
    <path id="Path_215" d="M0 411.906l30.138-123.215 20.983-22.771z" class="cls-3" data-name="Path 215" transform="translate(0 -115.923)"/>
    <path id="Path_216" d="M74.413 168.69L53.43 191.461l15.07-31.689L182.669 42.88z" class="cls-3" data-name="Path 216" transform="translate(-23.292 -18.693)"/>
    <path id="Path_217" d="M90.63 234l149.777-41.31-110.5 187.293z" class="cls-2" data-name="Path 217" transform="translate(-39.509 -84)"/>
    <path id="Path_218" d="M437.1 508.17l90.335 197.513L346.58 678.9z" class="cls-9" data-name="Path 218" transform="translate(-151.086 -221.528)"/>
    <path id="Path_219" d="M790.769 534.63L808.5 678.377l-141.29 38.842z" class="cls-9" data-name="Path 219" transform="translate(-290.859 -233.063)"/>
    <g id="Group_57" data-name="Group 57" transform="translate(200.898 10.712)">
        <path id="Path_220" d="M441.278 370.642l107.071-156.523L356.16 192.69z" class="cls-10" data-name="Path 220" transform="translate(-356.16 -94.712)"/>
        <path id="Path_221" d="M548.349 138.4L499.873 18.99 356.16 116.968z" class="cls-10" data-name="Path 221" transform="translate(-356.16 -18.99)"/>
        <path id="Path_222" d="M659.416 138.4l93.753 5.816L610.94 18.99z" class="cls-10" data-name="Path 222" transform="translate(-467.227 -18.99)"/>
        <path id="Path_223" d="M614.131 230.68l107.145 171.431L507.06 387.2z" class="cls-10" data-name="Path 223" transform="translate(-421.942 -111.273)"/>
        <path id="Path_224" d="M696.88 230.68l93.754 5.816 13.391 166.112z" class="cls-10" data-name="Path 224" transform="translate(-504.691 -111.273)"/>
    </g>
    <g id="Group_58" data-name="Group 58" transform="translate(486.841 124.552)">
        <path id="Path_225" d="M918.651 260.989l-24.757-40.179-30.8 11.383z" class="cls-11" data-name="Path 225" transform="translate(-863.09 -220.81)"/>
        <path id="Path_226" d="M876.159 406.623l76-.231L863.09 240.99z" class="cls-11" data-name="Path 226" transform="translate(-863.09 -229.607)"/>
        <path id="Path_227" d="M952.156 406.391l-33.505-136.605-55.561-28.8z" class="cls-11" data-name="Path 227" transform="translate(-863.09 -229.607)"/>
    </g>
    <path id="Path_228" d="M886.26 534.451l76-.231-58.266 143.98z" class="cls-8" data-name="Path 228" transform="translate(-386.35 -232.884)"/>
</svg>
