<svg xmlns="http://www.w3.org/2000/svg" xmlns:xlink="http://www.w3.org/1999/xlink" width="66.924" height="66.931" viewBox="0 0 66.924 66.931">
  <defs>
    <linearGradient id="linear-gradient" x1="0.194" y1="0.809" x2="0.806" y2="0.198" gradientUnits="objectBoundingBox">
      <stop offset="0" stop-color="#312146"/>
      <stop offset="0.2" stop-color="#5a2752"/>
      <stop offset="0.4" stop-color="#a5405c"/>
      <stop offset="0.6" stop-color="#ef5965"/>
      <stop offset="0.8" stop-color="#f47d33"/>
      <stop offset="1" stop-color="#f9a000"/>
    </linearGradient>
    <linearGradient id="linear-gradient-2" x1="0.198" y1="0.806" x2="0.802" y2="0.202" xlink:href="#linear-gradient"/>
  </defs>
  <g id="logo_Psyche" transform="translate(0.003 0.003)">
    <path id="Path_277" data-name="Path 277" d="M33.452,66.924a17.953,17.953,0,0,1-12.734-5.268L5.248,46.186a18.065,18.065,0,0,1,0-25.468L20.718,5.248a18.065,18.065,0,0,1,25.468,0L61.655,20.718a18.03,18.03,0,0,1,0,25.468L46.186,61.655a17.953,17.953,0,0,1-12.734,5.272Zm0-64.574A15.54,15.54,0,0,0,22.383,6.913L6.913,22.383a15.709,15.709,0,0,0,0,22.136L22.383,59.99a15.672,15.672,0,0,0,22.136,0L59.988,44.521a15.672,15.672,0,0,0,0-22.136L44.521,6.913a15.54,15.54,0,0,0-11.069-4.56Z" transform="translate(0 0)" fill="url(#linear-gradient)"/>
    <path id="Path_278" data-name="Path 278" d="M47.143,77.251a14.973,14.973,0,0,1-10.664-4.4L21.443,57.816a15.1,15.1,0,0,1,0-21.327L36.479,21.453a15.1,15.1,0,0,1,21.327,0L72.841,36.489a15.12,15.12,0,0,1,0,21.327L57.808,72.851A14.973,14.973,0,0,1,47.143,77.251Zm0-58.639a13.468,13.468,0,0,0-9.553,3.951L22.555,37.6a13.525,13.525,0,0,0,0,19.106L37.59,71.74a13.549,13.549,0,0,0,19.106,0L71.732,56.7a13.549,13.549,0,0,0,0-19.106L56.692,22.563a13.468,13.468,0,0,0-9.549-3.957Z" transform="translate(-13.691 -13.699)" fill="url(#linear-gradient-2)"/>
    <path id="Path_279" data-name="Path 279" d="M167.69,186.205a15.21,15.21,0,0,0,12.567-5.928,50.143,50.143,0,0,1-7.943,1.3Zm18.5-18.5-4.62,4.62a49.541,49.541,0,0,1-1.306,7.947A15.155,15.155,0,0,0,186.185,167.71Z" transform="translate(-134.764 -134.781)" fill="#312146"/>
    <path id="Path_280" data-name="Path 280" d="M157.121,148.374A11.978,11.978,0,0,0,155.862,143l-4.852,4.856a15.155,15.155,0,0,1-5.924,12.567,12.055,12.055,0,0,0,12.035-12.049ZM142.28,163.225a15.12,15.12,0,0,1-9.765,3.128l-4.848,4.842a12.043,12.043,0,0,0,17.419-10.776A15.2,15.2,0,0,1,142.28,163.225Zm-9.765,3.122,4.626-4.626a49.756,49.756,0,0,1-11.283-.348l-1.938,1.938a15.187,15.187,0,0,0,8.595,3.036Zm12.567-17.973a11.994,11.994,0,0,0-1.131-5.105l-13.977,13.983c.086.12.171.242.263.361a15.2,15.2,0,0,0,2.8,2.8A12.043,12.043,0,0,0,145.082,148.374Z" transform="translate(-99.589 -114.923)" fill="#5a2752"/>
    <path id="Path_281" data-name="Path 281" d="M236.55,125.926a49.9,49.9,0,0,1,.355,11.275l4.62-4.62A15.1,15.1,0,0,0,238.488,124Z" transform="translate(-190.103 -99.654)" fill="#5a2752"/>
    <path id="Path_282" data-name="Path 282" d="M106.461,134.428c-.09-.118-.175-.24-.263-.361l-2.034,2.046a11.994,11.994,0,0,0,5.105,1.131,15.2,15.2,0,0,1-2.808-2.812Zm-6.321,5.694-1.92,1.92a12.015,12.015,0,0,0,5.667,5.965l4.848-4.848a15.187,15.187,0,0,1-8.595-3.034Zm27.1-15.46,4.844-4.848a12.086,12.086,0,0,0-5.965-5.665l-1.924,1.924a15.1,15.1,0,0,1,3.038,8.6Zm-21.04,9.4,13.987-13.975a12.088,12.088,0,0,0-5.814-5.814l-11.045,11.036a15.1,15.1,0,0,0,2.873,8.758Zm-11.868.24.088.122a15.2,15.2,0,0,0,2.792,2.8q-.589-2.405-.95-4.864Z" transform="translate(-75.81 -91.738)" fill="#a5405c"/>
    <path id="Path_283" data-name="Path 283" d="M111.93,124.183l1.938-1.938A49.514,49.514,0,0,1,109,121.29,15.179,15.179,0,0,0,111.93,124.183Zm24.054-24.043-.088-.122a15.2,15.2,0,0,0-2.8-2.8q.589,2.405.95,4.864Zm-5.812-5.826-1.928,1.934q2.45.352,4.856.946a15.181,15.181,0,0,0-2.928-2.885Z" transform="translate(-87.599 -75.794)" fill="#a5405c"/>
    <path id="Path_284" data-name="Path 284" d="M86.543,216.922c-.031-.039-.059-.082-.088-.122l-1.924,1.924a12,12,0,0,0,4.8,1,15.2,15.2,0,0,1-2.8-2.806Z" transform="translate(-67.934 -174.231)" fill="#ef5965"/>
    <path id="Path_285" data-name="Path 285" d="M84.778,113.4a12,12,0,0,0,1,4.813l1.92-1.92A15.179,15.179,0,0,1,84.778,113.4Zm26.9-21.284c.031.039.059.082.088.122l1.924-1.924a12,12,0,0,0-4.817-1.009A15.2,15.2,0,0,1,111.68,92.115ZM108.874,89.3a12,12,0,0,0-1-4.813l-1.92,1.92A15.181,15.181,0,0,1,108.874,89.3ZM90.893,101.477l-4.976,4.972a12.088,12.088,0,0,0,5.814,5.828l2.034-2.034A15.1,15.1,0,0,1,90.893,101.477Zm0,0,11.034-11.034a11.994,11.994,0,0,0-5.105-1.131,15.153,15.153,0,0,0-5.928,12.165Zm-9,8.993,1.938-1.938a49.89,49.89,0,0,1-.355-11.275l-4.62,4.613a15.1,15.1,0,0,0,3.038,8.6Z" transform="translate(-63.377 -67.902)" fill="#ef5965"/>
    <path id="Path_286" data-name="Path 286" d="M154.116,78.85l-4.626,4.626a49.755,49.755,0,0,1,11.293.348l1.938-1.938a15.187,15.187,0,0,0-8.6-3.036Z" transform="translate(-120.138 -63.369)" fill="#ef5965"/>
    <path id="Path_287" data-name="Path 287" d="M76.971,64.888a12.045,12.045,0,0,0-10.912,17.14l4.976-4.966a15.153,15.153,0,0,1,5.936-12.174ZM59,77.455l-4.852,4.86a12.023,12.023,0,0,0,5.964,5.665l1.924-1.924A15.1,15.1,0,0,1,59,77.455ZM86.1,62l1.92-1.92a12.086,12.086,0,0,0-5.665-5.965l-4.85,4.85A15.187,15.187,0,0,1,86.092,62Zm-8.6-3.028A15.21,15.21,0,0,0,64.93,64.9a50.144,50.144,0,0,1,7.943-1.3ZM59,77.455l4.62-4.62a49.539,49.539,0,0,1,1.3-7.947A15.155,15.155,0,0,0,59,77.455Z" transform="translate(-43.519 -43.487)" fill="#f47d33"/>
    <path id="Path_288" data-name="Path 288" d="M59.712,109a12.043,12.043,0,0,0-10.776,17.419l4.86-4.852A15.155,15.155,0,0,1,59.712,109Z" transform="translate(-38.311 -87.599)" fill="#f9a000"/>
    <path id="Path_289" data-name="Path 289" d="M111.812,56.94a15.12,15.12,0,0,1,9.765-3.128l4.848-4.848A12.043,12.043,0,0,0,109,59.732,15.2,15.2,0,0,1,111.812,56.94Z" transform="translate(-87.599 -38.331)" fill="#f9a000"/>
  </g>
</svg>
