<svg xmlns="http://www.w3.org/2000/svg" width="26.887" height="29.15" viewBox="0 0 26.887 29.15">
  <path id="Path_291" data-name="Path 291" d="M22.162,30.6a3.9,3.9,0,0,1-3.507,2.8c-.162.008-.323.008-.485.008s-.323,0-.485-.008a3.916,3.916,0,0,1-3.507-2.8,3.132,3.132,0,0,0-1.414-1.721l-.057-.032a3.184,3.184,0,0,0-2.238-.356A3.852,3.852,0,0,1,6.35,26.839c-.17-.267-.331-.549-.485-.832a3.871,3.871,0,0,1,.622-4.42,3.159,3.159,0,0,0,.808-2.117v-.065a3.174,3.174,0,0,0-.808-2.117,3.843,3.843,0,0,1-.614-4.4c.154-.283.315-.558.485-.832a3.852,3.852,0,0,1,4.121-1.648,3.19,3.19,0,0,0,2.238-.356l.057-.032A3.166,3.166,0,0,0,14.187,8.3a3.9,3.9,0,0,1,3.507-2.8c.162-.008.323-.008.485-.008s.323,0,.485.008A3.915,3.915,0,0,1,22.17,8.3a3.132,3.132,0,0,0,1.414,1.721l.057.032a3.184,3.184,0,0,0,2.238.356A3.852,3.852,0,0,1,30,12.061c.17.267.331.549.485.832a3.871,3.871,0,0,1-.622,4.42,3.159,3.159,0,0,0-.808,2.117v.065a3.174,3.174,0,0,0,.808,2.117,3.871,3.871,0,0,1,.622,4.42c-.154.283-.315.558-.485.832a3.852,3.852,0,0,1-4.121,1.648,3.19,3.19,0,0,0-2.238.356l-.057.032A3.045,3.045,0,0,0,22.162,30.6ZM18.17,15.091a4.363,4.363,0,1,0,4.363,4.363A4.366,4.366,0,0,0,18.17,15.091Z" transform="translate(-4.731 -4.875)" fill="none" stroke="#fff" stroke-miterlimit="10" stroke-width="1.25" opacity="0.821"/>
</svg>
