<svg xmlns="http://www.w3.org/2000/svg" id="Layer_1" data-name="Layer 1" xmlns:xlink="http://www.w3.org/1999/xlink" viewBox="0 0 659.31 340.85">
  <defs>
    <style>
      .cls-1{fill:url(#linear-gradient);}.cls-2{fill:url(#linear-gradient-2);}.cls-3{fill:#312146;}.cls-4{fill:#5a2752;}.cls-5{fill:#a5405c;}.cls-6{fill:#ef5965;}.cls-7{fill:#f47d33;}.cls-8{fill:#f9a000;}
    </style>
    <linearGradient id="linear-gradient" x1="66.15" x2="274.63" y1="66.15" y2="274.63" gradientUnits="userSpaceOnUse">
      <stop offset="0" stop-color="#312146"/>
      <stop offset=".2" stop-color="#5a2752"/>
      <stop offset=".4" stop-color="#a5405c"/>
      <stop offset=".6" stop-color="#ef5965"/>
      <stop offset=".8" stop-color="#f47d33"/>
      <stop offset="1" stop-color="#f9a000"/>
    </linearGradient>
    <linearGradient id="linear-gradient-2" x1="77.8" x2="262.98" y1="77.8" y2="262.98" xlink:href="#linear-gradient"/>
  </defs>
  <path d="M170.39 340.85A91.43 91.43 0 0 1 105.54 314l-78.78-78.76a92 92 0 0 1 0-129.7l78.78-78.78a92 92 0 0 1 129.7 0L314 105.54a91.82 91.82 0 0 1 0 129.7L235.24 314a91.43 91.43 0 0 1-64.85 26.85zm0-328.85A79.14 79.14 0 0 0 114 35.24L35.24 114a80 80 0 0 0 0 112.73L114 305.54a79.81 79.81 0 0 0 112.73 0l78.78-78.78a79.81 79.81 0 0 0 0-112.73l-78.75-78.79A79.14 79.14 0 0 0 170.39 12z" class="cls-1"/>
  <path d="M170.39 323.68a76.25 76.25 0 0 1-54.31-22.41L39.51 224.7a76.89 76.89 0 0 1 0-108.61l76.57-76.57a76.89 76.89 0 0 1 108.61 0l76.57 76.57a77 77 0 0 1 0 108.61l-76.56 76.57a76.25 76.25 0 0 1-54.31 22.41zm0-298.63a68.59 68.59 0 0 0-48.65 20.12l-76.57 76.57a68.88 68.88 0 0 0 0 97.3l76.57 76.57a69 69 0 0 0 97.3 0L295.61 219a69 69 0 0 0 0-97.3L219 45.17a68.59 68.59 0 0 0-48.61-20.12z" class="cls-2"/>
  <path d="M167.71 261.92a77.46 77.46 0 0 0 64-30.19 255.36 255.36 0 0 1-40.45 6.63zM261.9 167.73l-23.53 23.53a252.29 252.29 0 0 1-6.65 40.47 77.18 77.18 0 0 0 30.18-64z" class="cls-3"/>
  <path d="M293.06 170.39a61.05 61.05 0 0 0-6.45-27.39l-24.71 24.73a77.18 77.18 0 0 1-30.17 64 61.14 61.14 0 0 0 43.37-18 61.14 61.14 0 0 0 17.96-43.34zM217.44 246a77 77 0 0 1-49.73 15.93L143 286.61a61.33 61.33 0 0 0 88.71-54.88A77.41 77.41 0 0 1 217.44 246zM167.71 261.92l23.56-23.56a253.39 253.39 0 0 1-57.46-1.77l-9.87 9.87a77.34 77.34 0 0 0 43.77 15.46zM231.73 170.39a61.08 61.08 0 0 0-5.76-26l-71.18 71.21c.44.61.87 1.23 1.34 1.84a77.42 77.42 0 0 0 14.26 14.28 61.33 61.33 0 0 0 61.34-61.33z" class="cls-4"/>
  <path d="M236.57 133.83a254.1 254.1 0 0 1 1.81 57.42l23.53-23.53A76.91 76.91 0 0 0 246.44 124z" class="cls-4"/>
  <path d="M156.13 217.44c-.46-.6-.89-1.22-1.34-1.84L144.43 226a61.08 61.08 0 0 0 26 5.76 77.42 77.42 0 0 1-14.3-14.32zM123.94 246.46l-9.78 9.78A61.44 61.44 0 0 0 127 275.09a61.5 61.5 0 0 0 16 11.51l24.69-24.69a77.34 77.34 0 0 1-43.75-15.45zM261.9 167.73L286.61 143a61.55 61.55 0 0 0-30.38-28.85l-9.8 9.8a76.91 76.91 0 0 1 15.47 43.78zM154.79 215.6L226 144.43a61.56 61.56 0 0 0-29.61-29.61L140.16 171a76.91 76.91 0 0 0 14.63 44.6zM94.35 216.82c.15.21.3.42.45.62a77.4 77.4 0 0 0 14.26 14.28q-3-12.25-4.84-24.77z" class="cls-5"/>
  <path d="M123.94 246.46l9.87-9.87a252.16 252.16 0 0 1-24.75-4.86 77.3 77.3 0 0 0 14.88 14.73zM246.44 124c-.15-.21-.3-.42-.45-.62a77.41 77.41 0 0 0-14.26-14.28q3 12.25 4.84 24.77zM216.84 94.33L207 104.2a252.15 252.15 0 0 1 24.75 4.86 77.31 77.31 0 0 0-14.91-14.73z" class="cls-5"/>
  <path d="M94.8 217.44c-.16-.2-.3-.42-.45-.62l-9.8 9.8a61.1 61.1 0 0 0 24.51 5.11 77.4 77.4 0 0 1-14.26-14.29z" class="cls-6"/>
  <path d="M109.06 231.73a61.1 61.1 0 0 0 5.11 24.51l9.78-9.78a77.3 77.3 0 0 1-14.89-14.73zM246 123.34c.16.2.3.42.45.62l9.8-9.8a61.1 61.1 0 0 0-24.51-5.11A77.41 77.41 0 0 1 246 123.34zM231.73 109.06a61.11 61.11 0 0 0-5.11-24.51l-9.78 9.78a77.31 77.31 0 0 1 14.89 14.73zM140.16 171l-25.34 25.34A61.56 61.56 0 0 0 144.43 226l10.36-10.36A76.91 76.91 0 0 1 140.16 171zM140.16 171l56.19-56.19a61.08 61.08 0 0 0-26-5.76A77.17 77.17 0 0 0 140.16 171zM94.35 216.82l9.87-9.87a254.07 254.07 0 0 1-1.81-57.42l-23.53 23.53a76.91 76.91 0 0 0 15.47 43.76z" class="cls-6"/>
  <path d="M173.07 78.87l-23.56 23.56A253.39 253.39 0 0 1 207 104.2l9.87-9.87a77.34 77.34 0 0 0-43.8-15.46z" class="cls-6"/>
  <path d="M170.39 109.06a61.34 61.34 0 0 0-55.57 87.29L140.16 171a77.17 77.17 0 0 1 30.23-61.94zM78.88 173.06l-24.71 24.71a61.5 61.5 0 0 0 11.51 16 61.44 61.44 0 0 0 18.86 12.85l9.8-9.8a76.91 76.91 0 0 1-15.46-43.76zM216.84 94.33l9.78-9.78a61.55 61.55 0 0 0-28.85-30.38l-24.7 24.7a77.34 77.34 0 0 1 43.77 15.46zM173.07 78.87a77.46 77.46 0 0 0-64 30.19 255.37 255.37 0 0 1 40.45-6.63zM78.88 173.06l23.53-23.53a252.29 252.29 0 0 1 6.65-40.47 77.18 77.18 0 0 0-30.18 64z" class="cls-7"/>
  <path d="M109.06 109.06a61.33 61.33 0 0 0-54.88 88.71l24.71-24.71a77.18 77.18 0 0 1 30.17-64z" class="cls-8"/>
  <path d="M123.34 94.8a77 77 0 0 1 49.73-15.93l24.69-24.69a61.33 61.33 0 0 0-88.71 54.88 77.4 77.4 0 0 1 14.29-14.26z" class="cls-8"/>
  <path d="M395.48 180h-7.7v23.11H370.1v-65.8h25.38c9.28 0 16.19 5.92 16.19 15.8v11.06c0 9.83-6.91 15.83-16.19 15.83zm-.29-26.07c0-2.37-1.19-3.26-3.06-3.26h-4.35v17.18h4.35c1.87 0 3.06-1 3.06-3.26zM439.52 204.75c-13.43 0-21.53-7-21.53-18.76v-3.55h15.4v3.16c0 3.16 2 5.43 5.33 5.43s4.94-1.88 4.94-5.33c0-4.05-4.84-6.91-10.27-10.37-7-4.34-14.91-9.68-14.91-19.35 0-10.27 7.31-20.24 21.53-20.25 11.65 0 19.65 8.4 19.65 18.66v2.77h-15.4v-3.06c0-2.86-1.88-4.64-4.25-4.64a4.53 4.53 0 0 0-4.64 4.74c0 4 4.84 6.81 10.27 10.27 7 4.44 15 9.87 15 19.94.01 10.37-7.5 20.34-21.12 20.34zM496.19 175.33v27.75h-17.67v-27.75l-15.4-38h18.17l7.21 21.92 6.42-21.92h17.48zM537.56 204.75c-13.23 0-22.91-8.1-22.91-20.24v-28.64c0-12.15 9.68-20.24 22.91-20.24 12.54 0 20.54 7.7 20.54 19.05v7.41h-15.7v-7.5c0-2.57-1.68-4.35-4.84-4.34s-4.84 1.78-4.84 4.34v31.2c0 2.57 1.68 4.34 4.84 4.34s4.84-1.77 4.84-4.35v-7.51h15.7v7.41c0 11.37-8 19.07-20.54 19.07zM594.64 203.07V179h-10.47v24.09h-17.68v-65.78h17.68V164h10.47v-26.69h17.67v65.76zM621.69 203.07v-65.76h37.62v14.32h-19.95v11.55h12.94v12.44h-12.94v12.24h19.95v15.21z" class="cls-4"/>
</svg>
